# xmcd
#
# Track frame offsets: 
#        150
#        15216
#        33449
#        52416
#        71433
#        97383
#        116267
#        143916
#        165742
#        180067
#        208099
#        234948
#        248574
#        266451
#        283650
#        313953
#        339850
#
# Disc length: 4775 seconds
#
# Revision: 0
# Processed by: cddbd v1.5.2PL0 Copyright (c) Steve Scherf et al.
# Submitted via: ExactAudioCopy v1.3
#
DISCID=ea12a511
DTITLE=Various Artist - Akella Presents - vol.117 - Rockin' Blues  CD
DTITLE=1
DYEAR=2017
DGENRE=Blues
TTITLE0=The BluesBones - Saved by the Blues
TTITLE1=Doug Gray - Voodoo Childern
TTITLE2=John Verity - Double Trouble
TTITLE3=Hillstomp - Jumper on the Line
TTITLE4=Willie May - Blue Room
TTITLE5=Woodleg Odd - The Old Man Blues
TTITLE6=The Stella Vees - 65 Caddy
TTITLE7=The Maynard Brothers - Waitin' On A Bone
TTITLE8=Thorbjorn Risager - Love Turned Cold
TTITLE9=Guy Forsyth - Play To Loose
TTITLE10=Tony Vega - Dixieland
TTITLE11=Little Hurricane - Slingshot
TTITLE12=Larry Howard - Fire Proof
TTITLE13=Randall Bramblett - Bottom Of The Ocean
TTITLE14=Eddie Martin - Down The Road
TTITLE15=Mark Cook - Lawn Service Specialist
TTITLE16=Calvin Russell - This Is My Life
EXTD=
EXTT0=
EXTT1=
EXTT2=
EXTT3=
EXTT4=
EXTT5=
EXTT6=
EXTT7=
EXTT8=
EXTT9=
EXTT10=
EXTT11=
EXTT12=
EXTT13=
EXTT14=
EXTT15=
EXTT16=
PLAYORDER=
